#!OML:ASF F:\VICON\USERDATA\INSTALL\rory3\rory3.ASF
:FULLY-SPECIFIED
:DEGREES
1104
root 0.785239 10.2951 -0.552004 -15.2027 58.7024 6.72907
lowerback 41.657 0.358531 -3.82956
upperback 14.7178 0.712644 4.07084
thorax -3.57254 0.598874 5.99601
lowerneck -2.55724 -13.852 -12.2534
upperneck -22.4598 -16.7498 15.0834
head -3.87679 -8.23151 6.76298
rclavicle 1.27222e-014 3.33958e-014
rhumerus 59.3235 5.04405 -66.072
rradius 146.274
rwrist -53.654
rhand -6.54897 10.5727
rfingers 7.12502
rthumb 19.3046 -18.4892
lclavicle 1.27222e-014 3.33958e-014
lhumerus 27.0001 -61.896 7.05622
lradius 80.7244
lwrist -1.10616
lhand -53.8405 27.6335
lfingers 7.12502
lthumb -26.2706 55.8348
rfemur -117.423 -51.9743 32.3062
rtibia 146.462
rfoot -2.20557 2.17941
rtoes -13.2485
lfemur -75.0644 28.3161 -17.2372
ltibia 93.4683
lfoot 8.22765 -9.69474
ltoes 8.19511
1105
root 0.784548 10.2971 -0.549702 -15.3011 58.7177 6.6219
lowerback 41.6333 0.354424 -3.81888
upperback 14.7424 0.715967 4.09213
thorax -3.53966 0.599418 6.01248
lowerneck -2.27616 -13.7563 -12.1521
upperneck -22.7839 -16.6337 15.0741
head -4.04398 -8.183 6.79876
rclavicle 4.21423e-014 -4.45278e-014
rhumerus 59.3137 4.94259 -66.1565
rradius 146.317
rwrist -53.7808
rhand -6.83003 10.4927
rfingers 7.12502
rthumb 19.0343 -18.5959
lclavicle 4.21423e-014 -4.45278e-014
lhumerus 26.731 -61.8229 7.3312
lradius 80.7509
lwrist -1.13739
lhand -53.7547 27.4493
lfingers 7.12502
lthumb -26.1885 55.6627
rfemur -117.287 -51.9819 32.2915
rtibia 146.441
rfoot -2.27598 2.13959
rtoes -12.9704
lfemur -75.0357 28.2594 -17.1561
ltibia 93.4606
lfoot 8.16908 -9.6844
ltoes 7.89895
1106
root 0.785108 10.2977 -0.548109 -15.2211 58.7961 6.7027
lowerback 41.6146 0.349107 -3.86059
upperback 14.7452 0.694865 4.08687
thorax -3.5284 0.588001 6.03663
lowerneck -2.13765 -13.7214 -12.2235
upperneck -22.8641 -16.5924 15.1349
head -4.08231 -8.16404 6.84543
rclavicle -1.11319e-014 7.95139e-015
rhumerus 59.2873 4.83078 -66.2368
rradius 146.337
rwrist -53.9029
rhand -7.65131 10.693
rfingers 7.12502
rthumb 18.2443 -18.4714
lclavicle -1.11319e-014 7.95139e-015
lhumerus 26.6679 -61.7907 7.43535
lradius 80.7115
lwrist -1.24
lhand -53.7616 27.3352
lfingers 7.12502
lthumb -26.1951 55.5476
rfemur -117.383 -52.1595 32.3154
rtibia 146.453
rfoot -2.33407 2.20635
rtoes -12.7537
lfemur -75.0535 28.2232 -17.2472
ltibia 93.4508
lfoot 8.22654 -9.76721
ltoes 7.53501
1107
root 0.787045 10.2973 -0.547748 -15.175 58.8264 6.74164
lowerback 41.605 0.321098 -3.89485
upperback 14.7734 0.651332 4.0957
thorax -3.48933 0.56445 6.0807
lowerneck -2.30285 -13.7482 -12.4677
upperneck -22.6831 -16.6087 15.2541
head -3.96427 -8.16088 6.88629
rclavicle 4.77083e-015 6.20208e-014
rhumerus 59.3748 4.84543 -66.246
rradius 146.305
rwrist -53.8886
rhand -7.97048 10.9729
rfingers 7.12502
rthumb 17.9372 -18.2199
lclavicle 4.77083e-015 6.20208e-014
lhumerus 26.4566 -61.7107 7.69098
lradius 80.6386
lwrist -1.25448
lhand -53.8202 27.1517
lfingers 7.12502
lthumb -26.2512 55.3558
rfemur -117.473 -52.267 32.3547
rtibia 146.475
rfoot -2.36619 2.25763
rtoes -12.4802
lfemur -75.0859 28.2529 -17.3241
ltibia 93.4542
lfoot 8.29544 -9.90511
ltoes 7.03334
1108
root 0.78802 10.2974 -0.547613 -15.1935 58.8069 6.687
lowerback 41.5545 0.301225 -3.91128
upperback 14.8187 0.626925 4.13069
thorax -3.42291 0.548436 6.13686
lowerneck -2.41814 -13.7662 -12.6626
upperneck -22.5968 -16.6136 15.3629
head -3.88994 -8.15479 6.92887
rclavicle 7.15625e-015 -6.36111e-014
rhumerus 59.4885 4.88622 -66.2396
rradius 146.27
rwrist -53.8287
rhand -7.63151 10.9684
rfingers 7.12502
rthumb 18.2634 -18.1942
lclavicle 7.15625e-015 -6.36111e-014
lhumerus 26.205 -61.612 7.97815
lradius 80.5961
lwrist -1.29097
lhand -53.914 27.0835
lfingers 7.12502
lthumb -26.341 55.2742
rfemur -117.487 -52.1945 32.3898
rtibia 146.482
rfoot -2.3701 2.22821
rtoes -12.2343
lfemur -75.1144 28.2669 -17.2775
ltibia 93.4743
lfoot 8.27794 -9.80607
ltoes 7.8767
1109
root 0.78957 10.2968 -0.547047 -15.135 58.7969 6.69639
lowerback 41.454 0.335506 -3.9268
upperback 14.8191 0.662056 4.13272
thorax -3.3981 0.563382 6.13471
lowerneck -2.27689 -13.7826 -12.5887
upperneck -22.6446 -16.6527 15.3552
head -3.92889 -8.1834 6.92888
rclavicle 3.33958e-014 -1.74931e-014
rhumerus 59.42 4.76255 -66.3067
rradius 146.259
rwrist -53.8486
rhand -6.94627 10.7191
rfingers 7.12502
rthumb 18.9225 -18.3804
lclavicle 3.33958e-014 -1.74931e-014
lhumerus 26.2943 -61.6136 7.92351
lradius 80.6025
lwrist -1.39307
lhand -53.948 27.2783
lfingers 7.12502
lthumb -26.3735 55.4641
rfemur -117.601 -52.1807 32.4925
rtibia 146.492
rfoot -2.40621 2.21078
rtoes -12.5598
lfemur -75.1787 28.2741 -17.279
ltibia 93.5048
lfoot 8.22948 -9.70186
ltoes 8.53219
1110
root 0.793167 10.2946 -0.546573 -15.0517 58.7823 6.73529
lowerback 41.362 0.351728 -3.94979
upperback 14.8345 0.673142 4.12886
thorax -3.35566 0.566319 6.13924
lowerneck -2.19686 -13.7926 -12.6053
upperneck -22.6659 -16.6735 15.3842
head -3.94054 -8.19711 6.94633
rclavicle 3.89618e-014 -4.77083e-014
rhumerus 59.3806 4.62156 -66.4298
rradius 146.272
rwrist -54.0998
rhand -6.32381 10.4907
rfingers 7.12502
rthumb 19.5211 -18.5493
lclavicle 3.89618e-014 -4.77083e-014
lhumerus 26.1604 -61.5667 8.10064
lradius 80.5824
lwrist -1.57503
lhand -53.8615 27.5961
lfingers 7.12502
lthumb -26.2908 55.7943
rfemur -117.778 -52.2548 32.647
rtibia 146.515
rfoot -2.48343 2.21372
rtoes -12.9692
lfemur -75.2769 28.3322 -17.3457
ltibia 93.5423
lfoot 8.21272 -9.72696
ltoes 8.31704
1111
root 0.795978 10.2935 -0.54801 -14.9783 58.7908 6.77639
lowerback 41.3181 0.322443 -3.96054
upperback 14.8698 0.635595 4.11942
thorax -3.29891 0.546715 6.14938
lowerneck -2.15809 -13.784 -12.7231
upperneck -22.7257 -16.6484 15.5159
head -3.94245 -8.18564 7.00951
rclavicle -2.62396e-014 2.22639e-014
rhumerus 59.4571 4.53217 -66.5649
rradius 146.267
rwrist -54.3696
rhand -5.93171 10.4578
rfingers 7.12502
rthumb 19.898 -18.5436
lclavicle -2.62396e-014 2.22639e-014
lhumerus 25.8588 -61.452 8.43534
lradius 80.5264
lwrist -1.81039
lhand -53.7581 27.6544
lfingers 7.12502
lthumb -26.1917 55.8674
rfemur -117.886 -52.2737 32.669
rtibia 146.53
rfoot -2.51456 2.19675
rtoes -13.0034
lfemur -75.3426 28.3218 -17.4023
ltibia 93.5617
lfoot 8.23991 -9.7075
ltoes 8.36925
1112
root 0.796696 10.2941 -0.549356 -14.8478 58.8097 6.89145
lowerback 41.2823 0.347673 -3.99343
upperback 14.8697 0.650918 4.08092
thorax -3.28887 0.554431 6.11962
lowerneck -2.03882 -13.8088 -12.577
upperneck -22.7755 -16.6919 15.5195
head -3.98272 -8.22223 7.00106
rclavicle -3.18055e-014 1.11319e-014
rhumerus 59.4579 4.4383 -66.65
rradius 146.206
rwrist -54.3255
rhand -5.60351 10.5048
rfingers 7.12502
rthumb 20.2135 -18.4635
lclavicle -3.18055e-014 1.11319e-014
lhumerus 25.8933 -61.418 8.41557
lradius 80.5253
lwrist -1.97067
lhand -53.6985 27.5256
lfingers 7.12502
lthumb -26.1347 55.747
rfemur -117.947 -52.2349 32.5713
rtibia 146.53
rfoot -2.53708 2.15534
rtoes -12.646
lfemur -75.3548 28.254 -17.4718
ltibia 93.5518
lfoot 8.23079 -9.64928
ltoes 8.30682
1113
root 0.796676 10.2942 -0.549245 -14.7657 58.8024 6.96047
lowerback 41.2563 0.385336 -4.04422
upperback 14.8666 0.675311 4.0626
thorax -3.2867 0.564683 6.11746
lowerneck -2.01316 -13.8193 -12.4419
upperneck -22.7053 -16.7199 15.4571
head -3.98065 -8.24464 6.95994
rclavicle 1.19271e-014 -3.97569e-014
rhumerus 59.4585 4.39068 -66.7305
rradius 146.146
rwrist -54.281
rhand -5.39318 10.4517
rfingers 7.12502
rthumb 20.4156 -18.495
lclavicle 1.19271e-014 -3.97569e-014
lhumerus 25.8424 -61.4042 8.47557
lradius 80.5317
lwrist -2.07566
lhand -53.6749 27.4837
lfingers 7.12502
lthumb -26.1121 55.7084
rfemur -117.965 -52.1641 32.5058
rtibia 146.531
rfoot -2.60104 2.07343
rtoes -12.2325
lfemur -75.3602 28.2524 -17.5183
ltibia 93.5369
lfoot 8.17321 -9.61446
ltoes 7.97089
1114
root 0.796771 10.2946 -0.549739 -14.7789 58.7836 6.93993
lowerback 41.2506 0.389486 -4.05821
upperback 14.8779 0.675833 4.0667
thorax -3.27265 0.563635 6.12912
lowerneck -2.00355 -13.7875 -12.3644
upperneck -22.6928 -16.6858 15.3888
head -3.99735 -8.22933 6.93159
rclavicle -1.35174e-014 4.92986e-014
rhumerus 59.4902 4.33974 -66.8496
rradius 146.124
rwrist -54.4329
rhand -5.11624 10.3523
rfingers 7.12502
rthumb 20.6817 -18.5657
lclavicle -1.35174e-014 4.92986e-014
lhumerus 25.6975 -61.3676 8.65682
lradius 80.4925
lwrist -2.13137
lhand -53.6496 27.265
lfingers 7.12502
lthumb -26.0879 55.4933
rfemur -117.927 -52.1151 32.4863
rtibia 146.53
rfoot -2.68009 1.98542
rtoes -12.264
lfemur -75.351 28.2672 -17.506
ltibia 93.5298
lfoot 8.13445 -9.59841
ltoes 7.76451
